<?xml version="1.0" encoding="UTF-8" standalone="no"?>
<!-- Created with Inkscape (http://www.inkscape.org/) -->

<svg
   width="11.805997mm"
   height="14.927771mm"
   viewBox="0 0 11.805997 14.927771"
   version="1.1"
   id="svg1"
   xml:space="preserve"
   xmlns="http://www.w3.org/2000/svg"
   xmlns:svg="http://www.w3.org/2000/svg"><defs
     id="defs1" /><g
     id="layer1"
     transform="translate(-44.812779,-35.104295)"><g
       id="g15"><g
         id="g17"><path
           id="rect61"
           style="fill:#f9f9f9;fill-opacity:1;stroke:#000000;stroke-width:0;stroke-linecap:round;stroke-linejoin:round;stroke-dasharray:none;stroke-opacity:0.107221;paint-order:fill markers stroke"
           d="M 44.812779,35.104295 V 50.032066 H 56.618776 V 39.60893 l -3.840592,-4.504635 z" /><g
           id="g16"><path
             fill="#8bb7f0"
             d="m 51.5244,43.62335 c 0,0.449229 -0.36346,0.812689 -0.812689,0.812689 -0.44923,0 -0.81269,-0.36346 -0.81269,-0.812689 0,-0.44923 0.36346,-0.81269 0.81269,-0.81269 0.449229,0 0.812689,0.36346 0.812689,0.81269 z"
             id="path11"
             style="stroke-width:0.125029" /><g
             id="g14"
             transform="matrix(0.12502914,0,0,0.12502914,45.710545,38.622184)"><path
               fill="#8bb7f0"
               d="m 24.474,75.503 c -1.711,0 -3.269,-0.392 -4.632,-1.164 -2.28,-1.293 -3.856,-3.521 -4.686,-6.62 -0.965,-3.607 -0.85,-8.398 0.332,-13.878 C 5.956,50.562 0.5,45.531 0.5,40 0.5,34.468 5.955,29.438 15.487,26.16 14.305,20.679 14.189,15.888 15.154,12.281 c 0.83,-3.1 2.406,-5.328 4.685,-6.62 1.362,-0.772 2.921,-1.164 4.632,-1.164 4.388,0 9.891,2.73 15.531,7.698 5.64,-4.963 11.141,-7.691 15.524,-7.691 1.711,0 3.269,0.392 4.632,1.164 2.277,1.291 3.854,3.515 4.684,6.611 0.966,3.606 0.85,8.398 -0.333,13.88 C 74.043,29.437 79.5,34.468 79.5,40 c 0,5.532 -5.457,10.563 -14.991,13.842 1.182,5.481 1.298,10.272 0.332,13.878 -0.83,3.097 -2.405,5.321 -4.68,6.612 -1.364,0.772 -2.923,1.164 -4.633,1.164 -4.386,0 -9.889,-2.728 -15.527,-7.689 -5.64,4.967 -11.142,7.696 -15.527,7.696 z M 19.337,55.006 c -0.991,4.717 -1.102,8.747 -0.316,11.679 0.542,2.026 1.481,3.431 2.794,4.175 0.753,0.427 1.648,0.644 2.659,0.644 3.394,0 7.862,-2.282 12.621,-6.437 -2.385,-2.402 -4.713,-5.121 -6.928,-8.091 -3.831,-0.416 -7.471,-1.078 -10.83,-1.97 z m 23.569,10.059 c 4.758,4.151 9.227,6.431 12.621,6.432 1.011,0 1.906,-0.217 2.661,-0.644 1.309,-0.742 2.246,-2.144 2.787,-4.167 0.786,-2.934 0.676,-6.963 -0.315,-11.679 -3.362,0.892 -7.003,1.554 -10.833,1.97 -2.214,2.97 -4.539,5.688 -6.921,8.088 z m -7.34,-7.672 c 1.452,1.776 2.938,3.433 4.434,4.94 1.492,-1.506 2.979,-3.163 4.43,-4.94 -1.491,0.071 -2.976,0.107 -4.43,0.107 -1.455,0 -2.941,-0.036 -4.434,-0.107 z m -3.217,-4.214 c 2.495,0.213 5.068,0.321 7.651,0.321 2.585,0 5.155,-0.108 7.646,-0.32 1.486,-2.084 2.903,-4.268 4.214,-6.495 1.268,-2.155 2.461,-4.404 3.547,-6.686 C 54.324,37.723 53.132,35.475 51.861,33.315 50.553,31.093 49.136,28.909 47.646,26.82 45.157,26.608 42.587,26.5 40,26.5 c -2.588,0 -5.159,0.108 -7.647,0.321 -1.49,2.086 -2.909,4.27 -4.219,6.495 -1.27,2.159 -2.462,4.407 -3.546,6.686 1.082,2.274 2.274,4.522 3.545,6.684 1.304,2.215 2.721,4.398 4.216,6.493 z m 25.142,-8.4 c -0.706,1.346 -1.438,2.666 -2.185,3.934 -0.753,1.282 -1.554,2.568 -2.386,3.836 2.374,-0.366 4.645,-0.835 6.771,-1.4 -0.59,-2.049 -1.329,-4.186 -2.2,-6.37 z m -37.187,6.369 c 2.127,0.564 4.397,1.034 6.768,1.4 -0.837,-1.276 -1.638,-2.563 -2.386,-3.835 -0.745,-1.267 -1.478,-2.585 -2.183,-3.931 -0.867,2.174 -1.605,4.309 -2.199,6.366 z M 59.816,40 c 1.528,3.391 2.773,6.743 3.708,9.977 C 70.926,47.373 75.5,43.574 75.5,40 75.5,36.426 70.926,32.627 63.524,30.023 62.591,33.257 61.345,36.609 59.816,40 Z M 16.472,30.025 C 9.073,32.628 4.5,36.427 4.5,40 c 0,3.574 4.573,7.373 11.974,9.976 0.934,-3.235 2.179,-6.587 3.705,-9.974 -1.527,-3.388 -2.772,-6.74 -3.707,-9.977 z m 3.831,-1.173 c 0.594,2.054 1.332,4.19 2.2,6.368 0.704,-1.342 1.436,-2.661 2.184,-3.932 0.752,-1.279 1.553,-2.565 2.388,-3.836 -2.374,0.365 -4.644,0.835 -6.772,1.4 z m 32.619,-1.401 c 0.837,1.277 1.638,2.563 2.386,3.837 0.746,1.267 1.479,2.586 2.185,3.932 0.869,-2.177 1.607,-4.313 2.201,-6.369 -2.13,-0.565 -4.4,-1.035 -6.772,-1.4 z M 24.471,8.497 c -1.011,0 -1.905,0.216 -2.657,0.644 -1.312,0.744 -2.252,2.149 -2.795,4.175 -0.785,2.935 -0.675,6.964 0.317,11.679 3.36,-0.892 7.002,-1.555 10.834,-1.971 2.217,-2.971 4.545,-5.688 6.927,-8.088 -4.76,-4.157 -9.231,-6.439 -12.626,-6.439 z m 25.357,14.526 c 3.83,0.416 7.471,1.078 10.833,1.97 0.992,-4.716 1.103,-8.746 0.316,-11.68 -0.542,-2.022 -1.48,-3.424 -2.79,-4.166 -0.754,-0.427 -1.649,-0.644 -2.661,-0.644 -3.393,0 -7.86,2.281 -12.619,6.433 2.38,2.399 4.706,5.117 6.921,8.087 z M 40,22.5 c 1.454,0 2.939,0.036 4.431,0.107 -1.45,-1.774 -2.936,-3.43 -4.429,-4.938 -1.497,1.51 -2.982,3.166 -4.432,4.938 C 37.061,22.536 38.546,22.5 40,22.5 Z"
               id="path12" /><path
               fill="#4e7ab5"
               d="m 24.471,4.997 c 4.494,0 9.996,2.91 15.532,7.867 5.535,-4.953 11.034,-7.86 15.524,-7.86 1.623,0 3.099,0.37 4.386,1.099 2.156,1.222 3.652,3.343 4.446,6.306 1.077,3.917 0.851,8.74 -0.434,14.08 C 73.147,29.57 79,34.431 79,40 c 0,5.569 -5.853,10.43 -15.076,13.512 1.341,5.773 1.566,10.726 0.434,14.079 -0.794,2.962 -2.289,5.084 -4.443,6.306 -1.289,0.73 -2.46,1.103 -4.082,1.103 -10e-4,0 -0.416,0 -0.417,0 -4.492,0 -9.882,-2.91 -15.416,-7.861 -5.535,4.956 -11.035,7.864 -15.527,7.864 -1.623,0 -3.099,-0.37 -4.386,-1.099 -2.158,-1.225 -3.655,-3.349 -4.448,-6.314 -1.19,-3.717 -0.95,-8.603 0.434,-14.079 C 6.852,50.429 1,45.569 1,40 1,34.432 6.852,29.571 16.072,26.489 15.385,23.43 14.946,20.59 14.931,18 c -0.012,-2.046 0.267,-3.949 0.707,-5.59 0.794,-2.966 2.29,-5.09 4.448,-6.314 1.286,-0.73 2.762,-1.099 4.385,-1.099 m -5.513,20.617 c 3.477,-0.955 7.338,-1.677 11.483,-2.117 2.382,-3.21 4.875,-6.096 7.386,-8.584 -4.872,-4.346 -9.616,-6.917 -13.356,-6.917 -1.099,0 -2.075,0.238 -2.904,0.709 -1.433,0.813 -2.452,2.32 -3.031,4.481 -0.858,3.202 -0.663,7.53 0.422,12.428 m 42.081,-0.001 c 1.085,-4.898 1.28,-9.227 0.422,-12.429 -0.578,-2.157 -1.597,-3.661 -3.027,-4.472 -0.83,-0.471 -1.809,-0.709 -2.907,-0.709 -3.737,0 -8.478,2.568 -13.349,6.91 2.51,2.488 5,5.374 7.38,8.583 4.143,0.44 8.004,1.162 11.481,2.117 M 34.477,23.166 c 1.802,-0.107 3.609,-0.2 5.488,-0.2 1.879,0 3.755,0.094 5.557,0.2 -1.808,-2.279 -3.664,-4.361 -5.521,-6.204 -1.857,1.843 -3.714,3.925 -5.524,6.204 M 40,54 c 2.761,0 5.404,-0.121 7.918,-0.342 1.519,-2.117 2.988,-4.365 4.372,-6.719 C 53.643,44.64 54.867,42.313 55.96,40 54.867,37.687 53.643,35.361 52.291,33.063 50.906,30.708 49.438,28.461 47.918,26.344 45.405,26.121 42.762,26 40,26 c -2.762,0 -5.406,0.121 -7.92,0.343 -1.521,2.117 -2.991,4.365 -4.376,6.719 -1.352,2.299 -2.576,4.626 -3.669,6.939 1.093,2.313 2.316,4.639 3.668,6.937 1.385,2.354 2.854,4.602 4.374,6.719 C 34.592,53.879 37.237,54 40,54 M 57.546,36.413 c 1.125,-2.709 2.056,-5.369 2.766,-7.913 -2.553,-0.702 -5.373,-1.282 -8.428,-1.707 1.028,1.527 2.029,3.11 2.992,4.748 0.954,1.619 1.841,3.247 2.67,4.872 m -35.097,0.001 c 0.828,-1.625 1.716,-3.253 2.668,-4.873 0.964,-1.638 1.966,-3.22 2.995,-4.747 -3.055,0.424 -5.875,1.005 -8.428,1.707 0.71,2.544 1.641,5.203 2.765,7.913 M 63.188,50.622 C 71.264,47.886 76,43.866 76,40 76,36.134 71.264,32.114 63.188,29.378 c -0.953,3.405 -2.269,6.983 -3.92,10.621 1.651,3.639 2.967,7.217 3.92,10.623 M 16.81,50.621 C 17.762,47.217 19.077,43.639 20.728,40.002 19.077,36.364 17.761,32.785 16.809,29.38 8.734,32.116 4,36.135 4,40 c 0,3.866 4.735,7.885 12.81,10.621 m 35.074,2.586 c 3.055,-0.424 5.875,-1.004 8.428,-1.707 -0.711,-2.544 -1.642,-5.204 -2.766,-7.914 -0.829,1.625 -1.717,3.253 -2.67,4.873 -0.963,1.638 -1.964,3.221 -2.992,4.748 M 28.109,53.206 c -1.028,-1.527 -2.029,-3.109 -2.993,-4.746 -0.952,-1.619 -1.839,-3.246 -2.667,-4.87 -1.124,2.708 -2.054,5.367 -2.764,7.91 2.552,0.701 5.371,1.281 8.424,1.706 m -3.635,18.797 c 3.739,0 8.481,-2.57 13.352,-6.914 -2.513,-2.489 -5.005,-5.376 -7.388,-8.587 -4.143,-0.439 -8.002,-1.161 -11.478,-2.116 -1.084,4.898 -1.279,9.226 -0.422,12.428 0.578,2.16 1.598,3.667 3.03,4.48 0.828,0.471 1.807,0.709 2.906,0.709 m 31.053,-0.006 v 0 c 1.099,0 2.076,-0.238 2.907,-0.709 1.43,-0.811 2.447,-2.315 3.024,-4.473 0.858,-3.203 0.663,-7.531 -0.421,-12.428 -3.477,0.955 -7.337,1.677 -11.481,2.116 -2.38,3.21 -4.871,6.096 -7.381,8.585 4.871,4.34 9.613,6.908 13.352,6.909 M 40,63.04 c 1.857,-1.844 3.713,-3.927 5.522,-6.206 -1.801,0.107 -3.559,0.333 -5.439,0.333 -1.881,0 -3.807,-0.226 -5.609,-0.333 1.81,2.28 3.668,4.363 5.526,6.206 M 24.116,4.072 c -1.799,0 -3.085,0.338 -4.523,1.153 -2.399,1.361 -4.055,3.691 -4.921,6.926 -0.96,3.587 -0.877,8.302 0.236,13.681 C 5.419,29.189 0,34.325 0,40 c 0,5.676 5.42,10.811 14.909,14.168 -1.113,5.379 -1.196,10.094 -0.235,13.681 0.865,3.233 2.52,5.563 4.921,6.926 1.44,0.816 3.17,1.163 4.968,1.163 4.487,0 9.753,-2.535 15.438,-7.466 5.684,4.926 11.039,7.524 15.525,7.525 1.799,0 3.441,-0.413 4.881,-1.229 2.397,-1.359 4.051,-3.686 4.916,-6.917 C 66.284,64.263 66.201,59.548 65.088,54.17 74.579,50.812 80,45.676 80,40 80,34.324 74.58,29.188 65.089,25.831 66.203,20.451 66.285,15.736 65.324,12.149 64.458,8.918 62.803,6.591 60.405,5.232 58.966,4.417 57.324,4.003 55.526,4.003 51.041,4.003 45.687,6.602 40.002,11.53 34.316,6.598 28.936,4.069 24.448,4.069 Z M 19.72,24.377 c -0.462,-2.324 -0.772,-4.502 -0.789,-6.412 -0.015,-1.72 0.221,-3.217 0.57,-4.521 0.507,-1.892 1.368,-3.194 2.559,-3.87 0.676,-0.384 1.5,-0.644 2.423,-0.644 3.181,0 7.367,2.178 11.883,6.034 -2.221,2.273 -4.392,4.819 -6.466,7.585 -3.585,0.4 -7.003,1.013 -10.18,1.828 z m 23.918,-9.411 c 4.515,-3.853 8.711,-5.963 11.888,-5.963 0.924,0 1.737,0.195 2.414,0.579 1.189,0.674 2.049,1.973 2.555,3.861 0.874,2.818 0.761,6.564 -0.218,10.933 C 57.1,23.562 53.683,22.948 50.099,22.55 48.026,19.785 45.857,17.239 43.638,14.966 Z m -6.965,7.094 c 1.096,-1.3 2.209,-2.53 3.328,-3.678 1.119,1.148 2.231,2.378 3.326,3.678 C 42.208,22.02 41.095,22 40,22 c -1.095,0 -2.207,0.02 -3.327,0.06 z m -4.048,5.24 c 2.405,-0.199 4.883,-0.341 7.375,-0.341 2.491,0 4.969,0.142 7.373,0.341 1.432,2.019 2.796,4.126 4.056,6.269 1.222,2.078 2.373,4.239 3.423,6.43 -1.051,2.192 -2.202,4.354 -3.424,6.432 -1.261,2.144 -2.624,4.25 -4.056,6.269 -2.403,0.199 -4.881,0.466 -7.372,0.466 -2.493,0 -4.972,-0.268 -7.378,-0.467 -1.433,-2.018 -2.797,-4.125 -4.058,-6.269 -1.222,-2.077 -2.372,-4.238 -3.422,-6.43 1.05,-2.192 2.201,-4.354 3.423,-6.432 1.262,-2.143 2.627,-4.25 4.06,-6.268 z m 24.797,6.724 c -0.549,-1.018 -1.112,-2.018 -1.683,-2.99 -0.57,-0.969 -1.167,-1.942 -1.785,-2.909 1.774,0.302 3.485,0.663 5.114,1.08 -0.467,1.566 -1.018,3.178 -1.646,4.819 z M 20.928,29.205 c 1.629,-0.417 3.34,-0.778 5.114,-1.08 -0.619,0.967 -1.216,1.94 -1.786,2.908 -0.571,0.972 -1.134,1.972 -1.683,2.99 -0.628,-1.639 -1.178,-3.251 -1.645,-4.818 z m 39.437,10.794 c 1.415,-3.162 2.587,-6.292 3.49,-9.326 C 70.758,33.192 75,36.721 75,40 c 0,3.279 -4.242,6.808 -11.145,9.327 -0.904,-3.035 -2.075,-6.166 -3.49,-9.328 z M 16.142,49.326 C 9.241,46.807 5,43.278 5,40 c 0,-3.278 4.241,-6.807 11.141,-9.326 0.903,3.035 2.074,6.165 3.489,9.327 -1.414,3.161 -2.585,6.291 -3.488,9.325 z m 37.811,2.55 c 0.618,-0.968 1.216,-1.941 1.785,-2.909 0.572,-0.972 1.135,-1.973 1.684,-2.991 0.628,1.641 1.178,3.254 1.646,4.821 -1.63,0.415 -3.341,0.777 -5.115,1.079 z M 20.929,50.795 c 0.467,-1.566 1.017,-3.177 1.644,-4.816 0.548,1.017 1.111,2.017 1.682,2.988 0.569,0.968 1.166,1.94 1.785,2.908 -1.773,-0.303 -3.483,-0.664 -5.111,-1.08 z m 3.545,20.208 c -0.924,0 -1.736,-0.195 -2.413,-0.579 -1.19,-0.676 -2.051,-1.977 -2.557,-3.869 -0.831,-2.845 -0.737,-6.592 0.218,-10.933 3.176,0.814 6.592,1.428 10.175,1.826 2.075,2.766 4.246,5.313 6.468,7.588 -4.515,3.857 -8.712,5.968 -11.891,5.967 z M 50.098,57.45 c 3.584,-0.399 7.001,-1.012 10.178,-1.826 1.105,4.74 1.192,8.518 0.217,10.932 -0.505,1.889 -1.364,3.188 -2.552,3.861 -0.678,0.384 -1.49,0.579 -2.413,0.579 v 1 l -10e-4,-1 c -3.18,0 -7.377,-2.11 -11.891,-5.961 2.22,-2.273 4.389,-4.819 6.462,-7.585 z M 40,61.62 C 38.88,60.472 37.766,59.241 36.67,57.94 37.79,57.98 38.904,58 40,58 c 1.095,0 2.208,-0.02 3.327,-0.06 -1.095,1.301 -2.208,2.532 -3.327,3.68 z"
               id="path14" /></g></g></g></g></g></svg>
